<?xml version="1.0" standalone="no"?>
<!DOCTYPE svg PUBLIC "-//W3C//DTD SVG 1.1//EN" "http://www.w3.org/Graphics/SVG/1.1/DTD/svg11.dtd">
<svg t="1695017243454" class="icon" viewBox="0 0 1024 1024" version="1.1"
    xmlns="http://www.w3.org/2000/svg" p-id="979" xmlns:xlink="http://www.w3.org/1999/xlink"
    width="200" height="200">
    <path
        d="M74.752 71.9872m312.832 0l259.328 0q312.832 0 312.832 312.832l0 259.328q0 312.832-312.832 312.832l-259.328 0q-312.832 0-312.832-312.832l0-259.328q0-312.832 312.832-312.832Z"
        fill="#231F18" p-id="980"></path>
    <path
        d="M696.6784 306.6368a430.592 430.592 0 0 1-135.9872-58.2656 79.3088 79.3088 0 0 0-87.04 0A430.592 430.592 0 0 1 337.92 306.6368 79.5648 79.5648 0 0 0 276.0192 384v214.3232c0 62.7712 83.1488 145.5104 215.8592 191.1296a78.4384 78.4384 0 0 0 50.7904 0c132.6592-45.6192 215.8592-128.3584 215.8592-191.1296V384a79.616 79.616 0 0 0-61.8496-77.3632z m-96.7168 238.08a26.624 26.624 0 0 1 0 53.1968h-56.32v30.72a26.5728 26.5728 0 0 1-53.1456 0v-30.72h-56.32a26.624 26.624 0 1 1 0-53.1968h56.32v-28.5696h-56.32a26.624 26.624 0 1 1 0-53.1968h31.5904l-49.0496-42.7008a26.5728 26.5728 0 1 1 34.8672-40.0896L517.12 436.9408l65.2288-56.7808a26.5728 26.5728 0 1 1 34.9184 40.0896L568.32 462.9504h31.5904a26.624 26.624 0 0 1 0 53.1968h-56.32v28.5696z"
        fill="#F6CB86" p-id="981"></path>
</svg>